<svg xmlns="http://www.w3.org/2000/svg" viewBox="0 0 320 260" width="320" height="260">
  <!-- redline test cat -->
  <rect width="320" height="260" rx="12" fill="#f3f1ec"/>

  <!-- tail -->
  <path d="M232 208 q56 6 52 -44 q-2 -26 -24 -28" fill="none" stroke="#8a5a33" stroke-width="14" stroke-linecap="round"/>

  <!-- body -->
  <ellipse cx="168" cy="196" rx="78" ry="46" fill="#c98a4b"/>
  <ellipse cx="168" cy="206" rx="50" ry="30" fill="#e8c193"/>

  <!-- front paws -->
  <ellipse cx="140" cy="236" rx="16" ry="9" fill="#e8c193"/>
  <ellipse cx="186" cy="236" rx="16" ry="9" fill="#e8c193"/>

  <!-- head -->
  <g>
    <!-- ears -->
    <path d="M96 84 L108 34 L140 66 Z" fill="#c98a4b"/>
    <path d="M204 84 L192 34 L160 66 Z" fill="#c98a4b"/>
    <path d="M104 76 L111 48 L129 66 Z" fill="#e8a0a8"/>
    <path d="M196 76 L189 48 L171 66 Z" fill="#e8a0a8"/>
    <circle cx="150" cy="106" r="58" fill="#c98a4b"/>

    <!-- stripes -->
    <path d="M150 50 v18 M128 54 l6 16 M172 54 l-6 16" stroke="#8a5a33" stroke-width="7" stroke-linecap="round" fill="none"/>

    <!-- eyes -->
    <g fill="#35322d">
      <ellipse cx="128" cy="102" rx="7" ry="10"/>
      <ellipse cx="172" cy="102" rx="7" ry="10"/>
    </g>
    <circle cx="130.5" cy="98" r="2.5" fill="#fff"/>
    <circle cx="174.5" cy="98" r="2.5" fill="#fff"/>

    <!-- nose + mouth -->
    <path d="M144 122 h12 l-6 8 Z" fill="#b03d22"/>
    <path d="M150 130 v8 M150 138 q-8 10 -18 4 M150 138 q8 10 18 4" stroke="#8a5a33" stroke-width="3.5" stroke-linecap="round" fill="none"/>

    <!-- whiskers -->
    <g stroke="#8a5a33" stroke-width="2.5" stroke-linecap="round">
      <path d="M108 118 q-24 -4 -40 -12"/>
      <path d="M108 128 q-24 2 -42 0"/>
      <path d="M192 118 q24 -4 40 -12"/>
      <path d="M192 128 q24 2 42 0"/>
    </g>
  </g>

  <text x="160" y="250" text-anchor="middle" font-family="monospace" font-size="11" fill="#837d72">rendered via /api/file — relative src works</text>
</svg>
